<svg xmlns="http://www.w3.org/2000/svg" width="614" height="82.644" viewBox="0 0 614 82.644">
  <g id="line_design" data-name="line design" transform="translate(-196.576 -273.237)">
    <g id="Group_29" data-name="Group 29" transform="translate(196.576 273.237)">
      <path id="Path_49" data-name="Path 49" d="M531.158,373.641l.011-7.409-237.648.02-.029,7.428Z" transform="translate(-214.564 -291.036)" fill="#f90"/>
      <path id="Path_50" data-name="Path 50" d="M662.5,323.211l.009-2.43-202.408-.011-.026,2.448Z" transform="translate(-247.55 -282.318)" fill="#f90"/>
      <path id="Path_51" data-name="Path 51" d="M429.2,320.129l.009-2.8-135.627-.011-.026,2.816Z" transform="translate(-214.576 -281.66)" fill="#f90"/>
      <path id="Path_52" data-name="Path 52" d="M886.733,365.993l-.021-1-301.348-.011L585.338,366Z" transform="translate(-272.733 -290.803)" fill="#f90"/>
      <path id="Path_53" data-name="Path 53" d="M886.733,275.35l-.021-2.1-301.348-.011-.026,2.12Z" transform="translate(-272.733 -273.237)" fill="#989898"/>
      <path id="Path_54" data-name="Path 54" d="M387.322,346.521l.009-1.681L196.6,344.829l-.026,1.7Z" transform="translate(-196.576 -286.91)" fill="#989898"/>
    </g>
  </g>
</svg>
