<?xml version="1.0" encoding="utf-8"?>
<!-- Generator: Adobe Illustrator 25.3.1, SVG Export Plug-In . SVG Version: 6.00 Build 0)  -->
<svg version="1.1" id="Layer_2" xmlns="http://www.w3.org/2000/svg" xmlns:xlink="http://www.w3.org/1999/xlink" x="0px" y="0px"
	 viewBox="0 0 720 216" style="enable-background:new 0 0 720 216;" xml:space="preserve">
<style type="text/css">
	.st0{fill:#FF9900;}
	.st1{fill:#666666;}
</style>
<g>
	<path class="st0" d="M540.2,56.9c-3.4-0.6-6.5-2-9-4l23.4-0.1c4.9-0.2,10.7,0.5,17.3,2.9c19.3,6.9,32.3-0.2,36.3-2.9
		c-6.5-6.6-10.4-15.7-10.3-25.6c0-3.6,0.6-7,1.6-10.3c0.1-0.6,0.2-0.9,0.2-0.9c-14.8-3.6-31.2-0.7-44.1,6.1
		c17.9-15.2,43.8-19.3,66.3-8.3l17.7,8.8c-0.6,1.9-2.3,3.3-4.4,3.3c-0.2,0.1-22.9,0-22.9,0c1.7,3,7.3,11.2,21.7,20.1
		c0,0,14.5,7.3,15.7,19.7L692,80l-59,19l30.7-17.4c0,0-18.1,0.5-45.1,6.6c-39.8,9-62.6-13-62.6-13c-24.7,16.9-44.3,6.1-44.3,6.1
		l-58.8,17.9L540.2,56.9"/>
	<g>
		<path class="st1" d="M52.4,109.8H28V95.4h66v14.4H69.4v73h-17V109.8z"/>
		<path class="st1" d="M170.5,182.8l-1-7H169c-3.9,4.9-10.5,8.4-18.7,8.4c-12.7,0-19.8-9.2-19.8-18.8c0-15.9,14.1-24,37.5-23.9v-1
			c0-4.1-1.7-11-12.8-11c-6.2,0-12.7,1.9-17,4.7l-3.1-10.4c4.7-2.9,12.8-5.6,22.8-5.6c20.2,0,26.1,12.8,26.1,26.6v22.8
			c0,5.7,0.3,11.3,0.9,15.2H170.5z M168.4,151.9c-11.3-0.3-22,2.2-22,11.8c0,6.2,4,9.1,9.1,9.1c6.4,0,11-4.1,12.4-8.7
			c0.4-1.2,0.5-2.5,0.5-3.5V151.9z"/>
		<path class="st1" d="M269.9,168.1c3.6,2.2,10.5,4.5,16.2,4.5c7,0,10.1-2.9,10.1-7c0-4.3-2.6-6.5-10.4-9.2
			c-12.3-4.3-17.5-11-17.4-18.4c0-11.1,9.2-19.8,23.9-19.8c7,0,13.1,1.8,16.7,3.8l-3.1,11.3c-2.7-1.6-7.8-3.6-13.4-3.6
			c-5.7,0-8.8,2.7-8.8,6.6c0,4,3,6,11,8.8c11.4,4.1,16.7,10,16.9,19.3c0,11.4-8.9,19.7-25.7,19.7c-7.6,0-14.5-1.8-19.2-4.4
			L269.9,168.1z"/>
		<path class="st1" d="M338,95.4v87.4h-15.9V99.2L338,95.4z"/>
		<polyline class="st1" points="476,175.8 476,208.5 460.1,208.5 		"/>
		<path class="st1" d="M569.8,182.8l-1-7h-0.4c-3.9,4.9-10.5,8.4-18.7,8.4c-12.7,0-19.8-9.2-19.8-18.8c0-15.9,14.1-24,37.5-23.9v-1
			c0-4.1-1.7-11-12.8-11c-6.2,0-12.7,1.9-17,4.7l-3.1-10.4c4.7-2.9,12.8-5.6,22.8-5.6c20.2,0,26.1,12.8,26.1,26.6v22.8
			c0,5.7,0.3,11.3,0.9,15.2H569.8z M567.7,151.9c-11.3-0.3-22,2.2-22,11.8c0,6.2,4,9.1,9.1,9.1c6.4,0,11-4.1,12.4-8.7
			c0.4-1.2,0.5-2.5,0.5-3.5V151.9z"/>
		<path class="st1" d="M643.2,180.8c-3.4,1.6-10,3.2-17.9,3.2c-19.7,0-32.5-12.6-32.5-32.1c0-18.9,13-33.7,35.1-33.7
			c5.8,0,11.8,1.3,15.4,3l-2.9,11.9c-2.6-1.2-6.4-2.5-12.1-2.5c-12.2,0-19.4,8.9-19.3,20.5c0,13,8.4,20.4,19.3,20.4
			c5.6,0,9.5-1.2,12.6-2.5L643.2,180.8z"/>
		<path class="st1" d="M654.3,105.4l15.6-3.8v18h15.2v11.9h-15.2v27.9c0,7.6,2.1,11.7,8.2,11.7c2.7,0,4.8-0.4,6.2-0.8l0.3,12.2
			c-2.3,0.9-6.5,1.6-11.5,1.6c-5.8,0-10.8-1.9-13.7-5.2c-3.4-3.6-4.9-9.3-4.9-17.6V105.4z"/>
		<path class="st1" d="M425,118.2c-5.2,0-9.2,1.3-12.7,3.8c-3,1.8-5.6,4.4-7.8,7.9h-0.3c-2.7-7-9.2-11.7-17.5-11.7
			c-9.3,0-14.9,4.5-18.2,9V118l-15.5,3.7v61.1h15.5h0.1v-37.3c0-1.8,0.3-3.6,0.9-5.2c1.4-4.4,5.4-9.1,11.4-9.1
			c7.4,0,10.9,6.2,10.9,15v36.6h15.6v-37.9c0-1.8,0.4-3.8,0.8-5.3c1.7-4.5,5.7-8.4,11.1-8.4c7.6,0,11.3,6.2,11.3,16.7v34.9h15.6
			v-37.2C446.2,125.4,435.5,118.2,425,118.2z"/>
		<path class="st1" d="M233.6,118.2c-9,0-15.3,4.4-18.7,8.7V118l-15.5,3.7v61.1h15.5v-37.1c0-1.8,0.1-3.8,0.6-5.2
			c1.7-4.8,6.1-9.3,12.4-9.3c8.7,0,12.1,6.9,12.1,15.9v35.6H256v-37.5C256,125.4,244.6,118.2,233.6,118.2z"/>
		<path class="st1" d="M121.6,118.2c-5.8,0-12.1,3.4-15.7,10V118l-15.5,3.7v61.1h15.5v-32.7c0-1.8,0.3-3.5,0.5-4.9
			c1.4-7.1,6.6-12.1,14.3-12.1c1.9,0,3.4,0.3,4.7,0.5v-15C124.1,118.4,123.2,118.2,121.6,118.2z"/>
		<path class="st1" d="M496,118.2c-8.5,0-15.3,3.2-20,8.9v-9l-15.9,3.8v86.6H476v-32.7c3.2,5.1,9.9,8.4,17.8,8.4
			c14.4,0,28.8-11,28.8-33.8C522.6,130.7,510.5,118.2,496,118.2z M490.7,171.9c-10.1,0-15.7-8.4-15.7-20.9
			c0-11.1,5.4-20.2,15.7-20.2c10.2,0,15.7,9.1,15.7,20.2C506.4,163.5,500.8,171.9,490.7,171.9z"/>
	</g>
</g>
</svg>
